<svg width="243" height="233" viewBox="0 0 243 233" fill="none" xmlns="http://www.w3.org/2000/svg">
<path d="M165.684 135.653C164.201 137.078 163.447 139.059 163.622 141.068C163.797 143.084 163.885 145.115 163.885 147.156C163.885 186.876 130.389 219.075 89.0682 219.075C47.7477 219.075 14.2509 186.876 14.2509 147.156C14.2509 107.437 47.7477 75.2382 89.0682 75.2382C90.7039 75.2382 92.3328 75.2886 93.9533 75.3888C95.9981 75.5153 98.0005 74.7896 99.4494 73.3969L163.641 11.6926C166.424 9.01775 166.424 4.68097 163.641 2.00613C160.858 -0.66871 156.347 -0.66871 153.564 2.00613L91.5621 61.5738C91.5621 61.5738 89.9484 61.5395 89.0682 61.5395C39.8772 61.5395 0 99.8715 0 147.156C0 194.441 39.8772 232.773 89.0682 232.773C138.259 232.773 178.136 194.441 178.136 147.156C178.136 144.733 178.056 143.133 178.056 143.133L240.332 83.2704C243.114 80.5955 243.114 76.2588 240.332 73.5839C237.549 70.9091 233.037 70.9091 230.255 73.5839L165.684 135.653Z" fill="white"/>
<path d="M180.225 65.4544C177.442 68.1292 177.442 72.466 180.225 75.1408C183.007 77.8157 187.519 77.8157 190.302 75.1408L240.275 27.1038C243.058 24.4289 243.058 20.0922 240.275 17.4173C237.493 14.7425 232.981 14.7425 230.198 17.4173L180.225 65.4544Z" fill="white"/>
<path d="M156.772 94.1794C156.772 95.996 157.523 97.7382 158.859 99.0227C160.195 100.307 162.008 101.029 163.898 101.029C165.787 101.029 167.6 100.307 168.936 99.0227C170.272 97.7382 171.023 95.996 171.023 94.1794C171.023 92.3629 170.272 90.6207 168.936 89.3362C167.6 88.0517 165.787 87.3301 163.898 87.3301C162.008 87.3301 160.195 88.0517 158.859 89.3362C157.523 90.6207 156.772 92.3629 156.772 94.1794Z" fill="white"/>
<path d="M126.783 68.8792C124 71.554 124 75.8908 126.783 78.5657C129.566 81.2405 134.077 81.2405 136.86 78.5657L172.582 44.2273C175.365 41.5525 175.365 37.2157 172.582 34.5409C169.8 31.866 165.288 31.866 162.505 34.5409L126.783 68.8792Z" fill="white"/>
<path d="M180.224 17.6672C177.442 20.3421 177.442 24.6789 180.224 27.3537C183.007 30.0285 187.519 30.0285 190.301 27.3537L204.812 13.405C207.595 10.7301 207.595 6.39337 204.812 3.71853C202.03 1.04369 197.518 1.04369 194.735 3.71853L180.224 17.6672Z" fill="white"/>
<path fill-rule="evenodd" clip-rule="evenodd" d="M89.6368 111.908C70.9998 111.056 54.1047 123.635 50.6831 141.8C46.96 161.555 60.5778 180.451 81.0951 183.972C99.3993 187.144 116.997 177.037 123.213 160.779L134.051 164.632C132.429 168.85 130.254 172.726 127.561 176.244L133.094 184.496L123.526 193.322L115.132 187.648C111.374 190.088 107.252 192.043 102.869 193.392L102.264 203.268L89.1281 204.982L85.8274 195.629C83.5609 195.553 81.2965 195.33 79.0336 194.931C76.7395 194.523 74.5435 194.002 72.3813 193.326L65.8907 200.957L54.2095 194.947L57.2283 185.51C53.6538 182.77 50.4913 179.596 47.8055 176.031L37.8847 178.536L32.1146 167.073L40.3408 161.121C39.1 156.966 38.488 152.582 38.4986 148.115L28.9683 144.512L31.3138 131.979L41.5834 131.825C43.1717 127.602 45.3767 123.722 48.0381 120.211L42.5067 111.893L52.0764 103.07L60.4697 108.775C64.2586 106.339 68.4109 104.382 72.7692 103.03L73.3976 93.1588L86.5061 91.4421L89.6368 111.908Z" fill="white"/>
<path d="M108.899 112.661C108.35 113.54 107.154 113.828 106.242 113.299L105.795 113.04C104.882 112.512 104.586 111.36 105.136 110.481L110.943 101.193C111.493 100.314 112.688 100.028 113.6 100.555L114.042 100.811C114.955 101.339 115.251 102.491 114.701 103.37L108.899 112.661Z" fill="white"/>
<path d="M122.531 128.674C121.598 129.174 120.416 128.848 119.901 127.951L119.656 127.525C119.142 126.627 119.483 125.485 120.415 124.987L130.25 119.723C131.183 119.224 132.367 119.549 132.886 120.444L133.127 120.858C133.643 121.754 133.305 122.895 132.375 123.394L122.531 128.674Z" fill="white"/>
<path d="M126.078 149.086C125.012 149.072 124.156 148.221 124.174 147.194L124.181 146.705C124.199 145.68 125.086 144.851 126.151 144.865L137.397 145.01C138.463 145.024 139.322 145.876 139.308 146.903L139.303 147.384C139.289 148.41 138.408 149.239 137.34 149.227L126.078 149.086Z" fill="white"/>
<path d="M94.6226 147.732C94.5462 151.026 91.7154 153.639 88.3012 153.571C87.2421 153.55 86.2518 153.272 85.3929 152.809L82.1916 155.755L80.1334 153.69L83.2278 150.836C82.5848 149.87 82.2172 148.723 82.2459 147.486C82.322 144.202 85.162 141.588 88.5775 141.656C89.943 141.683 91.1938 142.133 92.1942 142.878L108.827 128.767L109.614 129.555L94.1372 145.281C94.4654 146.036 94.6428 146.861 94.6226 147.732Z" fill="white"/>
</svg>
