<svg
    xmlns="http://www.w3.org/2000/svg"
    width="512"
    height="512"
    style="overflow: visible"
    viewBox="0 0 512 512"
    data-svgdocument=""
    id="_txHYzwL37gONALLTKm09J"
    class="fl-svgdocument"
    x="0"
    y="0"
    xmlns:xlink="http://www.w3.org/1999/xlink"
    data-bbox="89.9382092683918 122.67367194312864 337.3417068690651 266.6526553055488"
>
    <rect
        data-uid="o_enedj0ln1_4"
        data-fl-background=""
        x="0"
        y="0"
        width="512"
        height="512"
        fill="#6eccb1"
    ></rect>
    <defs
        id="_BmZN76aEL3PWEcE-HL3pz"
        transform="matrix(1.0855098962783813, 0, 0, 1.0855098962783813, -99.49972534179688, 76.6336669921875)"
        data-uid="o_enedj0ln1_5"
    ></defs>
    <g
        id="_VCOAtr6OLUwWWMWu5eAX2"
        transform="matrix(1.0308245420455933, 0, 0, 1.0308245420455933, 5.294609069824219, -27.746011132517538)"
        data-uid="o_enedj0ln1_6"
    >
        <path
            id="_f9tADKn60mwyNviya-pSr"
            d="M46.5047232,39.6409837 C46.0885385,40.0571685 45.8768028,40.6355447 45.9259103,41.2220667 C45.9752051,41.8108249 46,42.4037888 46,43 C46,54.5979797 36.5979797,64 25,64 C13.4020203,64 4,54.5979797 4,43 C4,31.4020203 13.4020203,22 25,22 C25.4591104,22 25.9163115,22.0147028 26.3711698,22.0439768 C26.945104,22.0809144 27.5071624,21.8689919 27.9138348,21.4623196 L45.9313633,3.44479104 C46.7124119,2.66374245 46.7124119,1.3974125 45.9313633,0.616363912 C45.1503147,-0.164684671 43.8839848,-0.164684671 43.1029362,0.616363912 L25.7000122,18.0100021 C25.7000122,18.0100021 25.2470636,18 25,18 C11.1928813,18 0,29.1928813 0,43 C0,56.8071187 11.1928813,68 25,68 C38.8071187,68 50,56.8071187 50,43 C50,42.2923634 49.9774525,41.8251087 49.9774525,41.8251087 L67.4571888,24.3453724 C68.2382374,23.5643238 68.2382374,22.2979939 67.4571888,21.5169453 C66.6761402,20.7358967 65.4098103,20.7358967 64.6287617,21.5169453 L46.5047232,39.6409837 Z"
            stroke="none"
            fill="#ffffff"
            transform="matrix(2.637213706970215, 0, 0, 2.637213706970215, 153.48666381835938, 124.26971435546875)"
            stroke-width="1"
            data-uid="o_enedj0ln1_7"
        ></path>
        <path
            id="_ChtC1-GivjNoxjmF47rC5"
            d="M50.6139912,20.5317158 C49.8329426,21.3127644 49.8329426,22.5790943 50.6139912,23.3601429 C51.3950398,24.1411915 52.6613697,24.1411915 53.4424183,23.3601429 L67.4691517,9.33340951 C68.2502003,8.55236093 68.2502003,7.28603097 67.4691517,6.50498239 C66.6881031,5.7239338 65.4217732,5.7239338 64.6407246,6.50498239 L50.6139912,20.5317158 Z"
            stroke="none"
            fill="#ffffff"
            transform="matrix(2.637213706970215, 0, 0, 2.637213706970215, 153.41336059570312, 120.60775756835938)"
            stroke-width="1"
            data-uid="o_enedj0ln1_8"
        ></path>
        <path
            id="_dpGu8CJQAkKYZAu-EfHMV"
            stroke="none"
            fill="#ffffff"
            transform="matrix(2.637213706970215, 0, 0, 2.637213706970215, 153.49569702148438, 123.0323715209961)"
            stroke-width="1"
            data-type="circle"
            data-cx="46"
            data-cy="28"
            data-r="2"
            d="M46,28m-2,0a2,2 0 1, 0 4,0a2,2 0 1, 0 -4,0"
            data-uid="o_enedj0ln1_9"
        ></path>
        <path
            id="_woGnHpCrMifDXQ1C1XzoQ"
            d="M35.6139912,21.5317158 C34.8329426,22.3127644 34.8329426,23.5790943 35.6139912,24.3601429 C36.3950398,25.1411915 37.6613697,25.1411915 38.4424183,24.3601429 L48.4691517,14.3334095 C49.2502003,13.5523609 49.2502003,12.286031 48.4691517,11.5049824 C47.6881031,10.7239338 46.4217732,10.7239338 45.6407246,11.5049824 L35.6139912,21.5317158 Z"
            stroke="none"
            fill="#ffffff"
            transform="matrix(2.637213706970215, 0, 0, 2.637213706970215, 153.41261291503906, 120.60784149169922)"
            stroke-width="1"
            data-uid="o_enedj0ln1_10"
        ></path>
        <path
            id="_VZ-kABNsZB83F0kwBXviv"
            d="M51.4894795,5.6562275 C50.7084309,6.43727609 50.7084309,7.70360605 51.4894795,8.48465463 C52.270528,9.26570321 53.536858,9.26570321 54.3179066,8.48465463 L58.3909046,4.41165658 C59.1719532,3.630608 59.1719532,2.36427804 58.3909046,1.58322946 C57.609856,0.802180874 56.3435261,0.802180874 55.5624775,1.58322946 L51.4894795,5.6562275 Z"
            stroke="none"
            fill="#ffffff"
            transform="matrix(2.637213706970215, 0, 0, 2.637213706970215, 151.10418701171875, 123.03853607177734)"
            stroke-width="1"
            data-uid="o_enedj0ln1_11"
        ></path>
    </g>
    <path
        text="Cotidie"
        text-anchor="middle"
        font-size="100"
        letter-spacing="0"
        side="left"
        offset="0.5"
        dx="0"
        dy="0"
        space="preserve"
        href=""
        font-family="Fugaz One"
        font-scale="contain"
        transform="matrix(0.9663182497024536, 0, 0, 0.9663182497024536, 258.4158020019531, 364.3779412562459)"
        x="0"
        y="0"
        fill="#365160"
        data-fl-textpath=""
        id="_pOLD1H_zO_8-WeAVYll1S"
        data-uid="o_enedj0ln1_12"
        d="M-150.75000000000003 1.4L-150.75000000000003 1.4Q-165.05 1.4 -170.55-4.8L-170.55-4.8Q-174.35000000000002-9.2 -174.35000000000002-17.1L-174.35000000000002-17.1Q-174.35000000000002-20.5 -173.65-24.4L-173.65-24.4L-169.55-47.4Q-165.05-72.7 -137.05-72.7L-137.05-72.7Q-125.45000000000002-72.7 -119.45000000000002-67.75Q-113.45000000000002-62.8 -113.45000000000002-54.2L-113.45000000000002-54.2Q-113.45000000000002-50.2 -114.60000000000002-46.25Q-115.75000000000001-42.3 -116.85000000000002-40.4L-116.85000000000002-40.4L-117.95000000000002-38.4L-135.65000000000003-38.4Q-132.35000000000002-42.2 -132.35000000000002-49.2L-132.35000000000002-49.2Q-132.35000000000002-52.9 -134.25-55.05Q-136.15000000000003-57.2 -139.85000000000002-57.2L-139.85000000000002-57.2Q-149.95000000000002-57.2 -151.85000000000002-46L-151.85000000000002-46L-155.35000000000002-25.8Q-155.85000000000002-23.2 -155.85000000000002-20.7L-155.85000000000002-20.7Q-155.85000000000002-14.1 -147.95000000000002-14.1L-147.95000000000002-14.1Q-138.45000000000002-14.1 -136.55-24.8L-136.55-24.8L-118.55000000000001-24.8L-119.05000000000001-21.9Q-123.05000000000001 1.4 -150.75000000000003 1.4ZM-81.15-49.5L-81.15-49.5Q-70.35000000000002-49.5 -64.85000000000002-44.8L-64.85000000000002-44.8Q-60.55000000000001-41.1 -60.55000000000001-34.5L-60.55000000000001-34.5Q-60.55000000000001-32.3 -61.05000000000001-29.7L-61.05000000000001-29.7L-63.15000000000001-18Q-65.05000000000001-7.4 -72.00000000000001-3Q-78.95000000000002 1.4 -90.55000000000001 1.4Q-102.15000000000002 1.4 -107.55000000000001-3L-107.55000000000001-3Q-111.55000000000001-6.3 -111.55000000000001-12.9L-111.55000000000001-12.9Q-111.55000000000001-15.2 -111.05000000000001-18L-111.05000000000001-18L-108.95000000000002-29.7Q-105.45000000000002-49.5 -81.15-49.5ZM-79.75000000000001-20.2L-78.45000000000002-27.7Q-78.25000000000001-28.7 -78.25000000000001-30.25Q-78.25000000000001-31.8 -79.55000000000001-33.7Q-80.85000000000002-35.6 -84.10000000000002-35.6Q-87.35000000000002-35.6 -89.55000000000001-33.45Q-91.75000000000001-31.3 -92.35000000000002-27.7L-92.35000000000002-27.7L-93.65-20.2Q-93.85000000000002-19.2 -93.85000000000002-17.65Q-93.85000000000002-16.1 -92.55000000000001-14.3Q-91.25000000000001-12.5 -88.00000000000001-12.5Q-84.75000000000001-12.5 -82.55000000000001-14.75Q-80.35000000000002-17 -79.75000000000001-20.2L-79.75000000000001-20.2ZM-33.25000000000001 1.4L-33.25000000000001 1.4Q-44.85000000000001 1.4 -49.95000000000001-3.8L-49.95000000000001-3.8Q-53.75000000000001-7.6 -53.75000000000001-14L-53.75000000000001-14Q-53.75000000000001-16.1 -53.35000000000001-18.5L-53.35000000000001-18.5L-46.55000000000001-57.2L-28.250000000000007-64.8L-31.15000000000001-48.1L-3.5500000000000114-48.1L-6.050000000000011-34L-33.650000000000006-34L-35.650000000000006-22.7Q-36.05000000000001-20.8 -36.05000000000001-19.3L-36.05000000000001-19.3Q-36.05000000000001-13 -30.050000000000008-13L-30.050000000000008-13Q-26.85000000000001-13 -24.70000000000001-15.7Q-22.55000000000001-18.4 -21.750000000000007-22.9L-21.750000000000007-22.9L-5.150000000000006-22.9Q-9.350000000000009 1.4 -33.25000000000001 1.4ZM 21.349999999999998-12.8L 21.349999999999998-12.8Q 23.65-12.8  25.449999999999996-13.8L 25.449999999999996-13.8L 24.949999999999996-2.5Q 20.249999999999996 1.4  14.249999999999996 1.4L 14.249999999999996 1.4Q 5.149999999999997 1.4  2.4499999999999975-2.8L 2.4499999999999975-2.8Q 0.6499999999999972-5.6  0.6499999999999972-8.75Q 0.6499999999999972-11.9  1.0499999999999972-14.3L 1.0499999999999972-14.3L 7.049999999999997-48.1L 24.049999999999997-48.1L 18.449999999999996-16.6Q 18.349999999999998-16  18.349999999999998-15.5L 18.349999999999998-15.5Q 18.349999999999998-12.8  21.349999999999998-12.8ZM 9.049999999999997-64.4L 9.049999999999997-64.4Q 9.049999999999997-70.8  11.899999999999997-73.75Q 14.749999999999996-76.7  20.749999999999996-76.7L 20.749999999999996-76.7Q 29.15-76.7  29.15-69.3L 29.15-69.3Q 29.15-63  26.299999999999997-60.1Q 23.449999999999996-57.2  17.349999999999998-57.2L 17.349999999999998-57.2Q 9.049999999999997-57.2  9.049999999999997-64.4ZM 78.45-15.4L 78.45-15.4Q 78.45-12.8  81.1-12.8Q 83.75-12.8  85.55-13.8L 85.55-13.8L 85.05-2.5Q 80.25 1.4  74.25 1.4L 74.25 1.4Q 63.25 1.4  62.05-6.6L 62.05-6.6Q 57.05 1.4  47.349999999999994 1.4L 47.349999999999994 1.4Q 30.95 1.4  30.95-12.7L 30.95-12.7Q 30.95-15.1  31.45-18L 31.45-18L 33.55-29.7Q 35.15-38.7  40.9-44.05Q 46.65-49.4  56.849999999999994-49.4L 56.849999999999994-49.4Q 63.14999999999999-49.4  66.85-46.7L 66.85-46.7L 71.95-75.9L 89.05-75.9L 78.55-16.6Q 78.45-16  78.45-15.4ZM 50.15-27.7L 48.849999999999994-20.2Q 48.65-19.3  48.65-17.7Q 48.65-16.1  50.15-14.55Q 51.65-13  55.2-13Q 58.75-13  61.349999999999994-15.8L 61.349999999999994-15.8L 64.35-32.6Q 63.25-35.1  59.15-35.1L 59.15-35.1Q 51.45-35.1  50.15-27.7L 50.15-27.7ZM 114.75-12.8L 114.75-12.8Q 117.05000000000001-12.8  118.85-13.8L 118.85-13.8L 118.35-2.5Q 113.65 1.4  107.65 1.4L 107.65 1.4Q 98.55 1.4  95.85000000000001-2.8L 95.85000000000001-2.8Q 94.05-5.6  94.05-8.75Q 94.05-11.9  94.45-14.3L 94.45-14.3L 100.45-48.1L 117.45-48.1L 111.85-16.6Q 111.75-16  111.75-15.5L 111.75-15.5Q 111.75-12.8  114.75-12.8ZM 102.45-64.4L 102.45-64.4Q 102.45-70.8  105.3-73.75Q 108.15-76.7  114.15-76.7L 114.15-76.7Q 122.55000000000001-76.7  122.55000000000001-69.3L 122.55000000000001-69.3Q 122.55000000000001-63  119.7-60.1Q 116.85-57.2  110.75-57.2L 110.75-57.2Q 102.45-57.2  102.45-64.4ZM 145.15 1.4L 145.15 1.4Q 124.35 1.4  124.35-13L 124.35-13Q 124.35-15  124.75-17.3L 124.75-17.3L 126.85-29.7Q 128.55-39.3  135.7-44.45Q 142.85-49.6  154.65-49.6L 154.65-49.6Q 174.75-49.6  174.75-34.4L 174.75-34.4Q 174.75-32.2  174.35-29.6L 174.35-29.6L 173.15-22.5L 142.65-22.5L 142.25-20.2Q 142.05-19  142.05-18L 142.05-18Q 142.05-12.5  148.55-12.5L 148.55-12.5Q 150.95-12.5  152.65-14Q 154.35-15.5  154.65-17.5L 154.65-17.5L 171.25-17.3Q 167.95 1.4  145.15 1.4ZM 143.65-28.6L 157.15-28.6Q 157.55-30.3  157.55-31.75Q 157.55-33.2  156.25-34.7Q 154.95-36.2  152.1-36.2Q 149.25-36.2  146.9-34.3Q 144.55-32.4  143.65-28.6L 143.65-28.6Z"
    ></path>
    <g
        transform="matrix(0.9997696876525879, 0.02146320603787899, -0.02146320603787899, 0.9997696876525879, 178.3337860107422, 166.95981991835527)"
        fill="#365160"
        data-uid="o_enedj0ln1_13"
    >
        <path
            fill-rule="evenodd"
            clip-rule="evenodd"
            d="M54.023,21.181c-14.246-0.382-26.924,9.86-29.215,24.319  c-2.493,15.725,8.24,30.496,23.969,32.965c14.033,2.227,27.291-6.066,31.75-19.057l8.344,2.885c-1.164,3.371-2.756,6.479-4.75,9.311  l4.371,6.457l-7.15,7.15l-6.51-4.367c-2.826,1.994-5.939,3.609-9.262,4.748l-0.287,7.842l-10,1.566l-2.686-7.365  c-1.732-0.025-3.465-0.166-5.2-0.447c-1.759-0.287-3.445-0.666-5.108-1.168l-4.821,6.154l-9.026-4.582l2.138-7.531  c-2.778-2.117-5.249-4.584-7.363-7.369l-7.531,2.143l-4.609-9l6.176-4.85c-1.021-3.275-1.566-6.742-1.637-10.285l-7.341-2.707  l1.569-9.976l7.839-0.284c1.138-3.374,2.753-6.486,4.723-9.312l-4.371-6.509l7.151-7.148l6.51,4.392  c2.85-1.992,5.986-3.609,9.29-4.75l0.305-7.838L51.27,5L54.023,21.181z"
            transform="matrix(1, 0, 0, 1, 0, 0)"
            fill="#365160"
            data-uid="o_enedj0ln1_14"
        ></path>
        <path
            d="M68.752,21.434c-0.404,0.706-1.312,0.953-2.018,0.548l-0.346-0.199c-0.707-0.404-0.953-1.313-0.549-2.019l4.271-7.458   c0.404-0.706,1.312-0.952,2.018-0.548l0.342,0.196c0.707,0.404,0.953,1.313,0.549,2.019L68.752,21.434z"
            transform="matrix(1, 0, 0, 1, 0, 0)"
            fill="#365160"
            data-uid="o_enedj0ln1_15"
        ></path>
        <path
            d="M79.422,33.916c-0.703,0.411-1.611,0.171-2.02-0.532l-0.195-0.334c-0.408-0.704-0.168-1.614,0.535-2.024l7.414-4.328   c0.703-0.41,1.613-0.171,2.025,0.53l0.191,0.325c0.41,0.702,0.172,1.612-0.529,2.022L79.422,33.916z"
            transform="matrix(1, 0, 0, 1, 0, 0)"
            fill="#365160"
            data-uid="o_enedj0ln1_16"
        ></path>
        <path
            d="M82.475,50.055c-0.814,0.006-1.482-0.654-1.486-1.467l-0.004-0.387c-0.004-0.812,0.658-1.482,1.471-1.488l8.584-0.062   c0.814-0.006,1.484,0.655,1.492,1.468l0.004,0.381c0.008,0.812-0.65,1.482-1.465,1.49L82.475,50.055z"
            transform="matrix(1, 0, 0, 1, 0, 0)"
            fill="#365160"
            data-uid="o_enedj0ln1_17"
        ></path>
        <path
            d="M58.459,49.5c0,2.613-2.115,4.73-4.723,4.73c-0.809,0-1.57-0.205-2.234-0.559l-2.392,2.387l-1.608-1.605l2.312-2.312    c-0.508-0.756-0.809-1.66-0.809-2.641c0-2.605,2.122-4.723,4.731-4.723c1.043,0,2.006,0.337,2.783,0.912l12.449-11.451    l0.615,0.612L58.045,47.564C58.309,48.158,58.459,48.809,58.459,49.5z"
            transform="matrix(1, 0, 0, 1, 0, 0)"
            fill="#365160"
            data-uid="o_enedj0ln1_18"
        ></path>
    </g>
    <path
        text="Make everyday a little less ordinary"
        fill="rgba(54, 84, 104,0.75)"
        space="preserve"
        text-anchor="middle"
        offset="0.5"
        font-scale="contain"
        font-size="48"
        font-family="Fugaz One"
        transform="matrix(0.5514097618594294, 0, 0, 0.5514097618594294, 255.8428461985472, 405.21867197895097)"
        data-uid="o_enedj0ln1_20"
        data-fl-textpath=""
        d="M-421.005984441422-34.56L-411.98598444142203-34.56L-406.845984441422-18L-395.805984441422-34.56L-386.73598444142203-34.56L-392.835984441422 0L-401.515984441422 0L-398.065984441422-19.49L-405.455984441422-7.87L-411.745984441422-7.87L-415.005984441422-19.49L-418.465984441422 0L-427.105984441422 0L-421.005984441422-34.56ZM-363.3579801720686-7.39L-363.3579801720686-7.39Q-363.3579801720686-6.14 -362.0879801720686-6.14Q-360.8179801720686-6.14 -359.9479801720686-6.62L-359.9479801720686-6.62L-360.1879801720686-1.2Q-362.4979801720686 0.67 -365.3779801720686 0.67L-365.3779801720686 0.67Q-370.6579801720686 0.67 -371.2279801720686-3.17L-371.2279801720686-3.17Q-373.6279801720686 0.67 -378.2879801720686 0.67L-378.2879801720686 0.67Q-386.1579801720686 0.67 -386.1579801720686-6.1L-386.1579801720686-6.1Q-386.1579801720686-7.25 -385.9179801720686-8.64L-385.9179801720686-8.64L-384.9079801720686-14.26Q-384.1479801720686-18.58 -381.3879801720686-21.14Q-378.6279801720686-23.71 -374.1879801720686-23.71Q-369.7479801720686-23.71 -368.1579801720686-21.65L-368.1579801720686-21.65L-367.9179801720686-23.09L-360.6279801720686-23.09L-363.3079801720686-7.97Q-363.3579801720686-7.68 -363.3579801720686-7.39ZM-376.9479801720686-13.3L-377.5679801720686-9.7Q-377.6679801720686-9.26 -377.6679801720686-8.5Q-377.6679801720686-7.73 -376.9479801720686-6.98Q-376.2279801720686-6.24 -374.5179801720686-6.24Q-372.8179801720686-6.24 -371.5679801720686-7.58L-371.5679801720686-7.58L-370.1279801720686-15.65Q-370.6579801720686-16.85 -372.6279801720686-16.85L-372.6279801720686-16.85Q-376.3179801720686-16.85 -376.9479801720686-13.3L-376.9479801720686-13.3ZM-333.9819840783186-6.14L-333.9819840783186-6.14Q-332.8819840783186-6.14 -332.0119840783186-6.62L-332.0119840783186-6.62L-332.2519840783186-1.2Q-334.5119840783186 0.67 -337.7719840783186 0.67Q-341.0419840783186 0.67 -342.6019840783186-1.06Q-344.1619840783186-2.78 -345.0219840783186-6.86L-345.0219840783186-6.86L-345.1719840783186-7.54Q-346.1719840783186-7.39 -348.1919840783186-7.3L-348.1919840783186-7.3L-349.4919840783186 0L-357.6519840783186 0L-351.2119840783186-36.43L-343.0519840783186-36.43L-345.8419840783186-20.64Q-343.0119840783186-23.76 -338.1619840783186-23.76L-338.1619840783186-23.76Q-334.8919840783186-23.76 -333.3319840783186-22.15Q-331.7719840783186-20.54 -331.7719840783186-17.86L-331.7719840783186-17.86Q-331.7719840783186-12.67 -337.2019840783186-9.74L-337.2019840783186-9.74L-336.6719840783186-7.97Q-336.1419840783186-6.14 -333.9819840783186-6.14ZM-342.2919840783186-17.23L-342.2919840783186-17.23Q-344.8819840783186-17.23 -346.8919840783186-14.78L-346.8919840783186-14.78L-347.4219840783186-11.62Q-340.3219840783186-11.9 -340.3219840783186-15.41L-340.3219840783186-15.41Q-340.3219840783186-16.22 -340.8219840783186-16.73Q-341.3319840783186-17.23 -342.2919840783186-17.23ZM-318.3860002162412 0.67L-318.3860002162412 0.67Q-328.3660002162412 0.67 -328.3660002162412-6.24L-328.3660002162412-6.24Q-328.3660002162412-7.2 -328.1760002162412-8.3L-328.1760002162412-8.3L-327.1660002162412-14.26Q-326.3560002162412-18.86 -322.9160002162412-21.34Q-319.4860002162412-23.81 -313.8260002162412-23.81L-313.8260002162412-23.81Q-304.1760002162412-23.81 -304.1760002162412-16.51L-304.1760002162412-16.51Q-304.1760002162412-15.46 -304.3660002162412-14.21L-304.3660002162412-14.21L-304.9460002162412-10.8L-319.5860002162412-10.8L-319.7760002162412-9.7Q-319.8760002162412-9.12 -319.8760002162412-8.64L-319.8760002162412-8.64Q-319.8760002162412-6 -316.7560002162412-6L-316.7560002162412-6Q-315.5960002162412-6 -314.7860002162412-6.72Q-313.9660002162412-7.44 -313.8260002162412-8.4L-313.8260002162412-8.4L-305.8560002162412-8.3Q-307.4360002162412 0.67 -318.3860002162412 0.67ZM-319.1060002162412-13.73L-312.6260002162412-13.73Q-312.4360002162412-14.54 -312.4360002162412-15.24Q-312.4360002162412-15.94 -313.0560002162412-16.66Q-313.6760002162412-17.38 -315.0460002162412-17.38Q-316.4160002162412-17.38 -317.5460002162412-16.46Q-318.6760002162412-15.55 -319.1060002162412-13.73L-319.1060002162412-13.73ZM-280.3700090053037 0.67L-280.3700090053037 0.67Q-290.3500090053037 0.67 -290.3500090053037-6.24L-290.3500090053037-6.24Q-290.3500090053037-7.2 -290.1600090053037-8.3L-290.1600090053037-8.3L-289.1500090053037-14.26Q-288.3400090053037-18.86 -284.9000090053037-21.34Q-281.4700090053037-23.81 -275.8100090053037-23.81L-275.8100090053037-23.81Q-266.1600090053037-23.81 -266.1600090053037-16.51L-266.1600090053037-16.51Q-266.1600090053037-15.46 -266.3500090053037-14.21L-266.3500090053037-14.21L-266.9300090053037-10.8L-281.5700090053037-10.8L-281.7600090053037-9.7Q-281.8600090053037-9.12 -281.8600090053037-8.64L-281.8600090053037-8.64Q-281.8600090053037-6 -278.7400090053037-6L-278.7400090053037-6Q-277.5800090053037-6 -276.7700090053037-6.72Q-275.9500090053037-7.44 -275.8100090053037-8.4L-275.8100090053037-8.4L-267.8400090053037-8.3Q-269.4200090053037 0.67 -280.3700090053037 0.67ZM-281.0900090053037-13.73L-274.6100090053037-13.73Q-274.4200090053037-14.54 -274.4200090053037-15.24Q-274.4200090053037-15.94 -275.0400090053037-16.66Q-275.6600090053037-17.38 -277.0300090053037-17.38Q-278.4000090053037-17.38 -279.5300090053037-16.46Q-280.6600090053037-15.55 -281.0900090053037-13.73L-281.0900090053037-13.73ZM-247.3940006922018-23.09L-239.2340006922018-23.09Q-238.56400069220177-21.07 -238.56400069220177-17.74Q-238.56400069220177-14.4 -239.37400069220178-11.33Q-240.19400069220177-8.26 -241.84400069220177-5.5Q-243.50400069220177-2.74 -246.45400069220176-1.03Q-249.40400069220178 0.67 -253.24400069220178 0.67L-253.24400069220178 0.67Q-259.2440006922018 0.67 -261.5540006922018-1.78L-261.5540006922018-1.78Q-263.08400069220176-3.41 -263.08400069220176-6.77L-263.08400069220176-6.77Q-263.08400069220176-8.35 -262.70400069220176-10.37L-262.70400069220176-10.37L-260.44400069220177-23.09L-252.28400069220177-23.09L-254.54400069220176-10.32Q-254.68400069220178-9.6 -254.68400069220178-9.02L-254.68400069220178-9.02Q-254.68400069220178-6.29 -251.85400069220177-6.29L-251.85400069220177-6.29Q-246.86400069220178-6.29 -246.86400069220178-16.75L-246.86400069220178-16.75Q-246.86400069220178-19.2 -247.24400069220178-22.18L-247.24400069220178-22.18L-247.3940006922018-23.09ZM-226.1779924037412 0.67L-226.1779924037412 0.67Q-236.1579924037412 0.67 -236.1579924037412-6.24L-236.1579924037412-6.24Q-236.1579924037412-7.2 -235.9679924037412-8.3L-235.9679924037412-8.3L-234.9579924037412-14.26Q-234.1479924037412-18.86 -230.7079924037412-21.34Q-227.2779924037412-23.81 -221.6179924037412-23.81L-221.6179924037412-23.81Q-211.9679924037412-23.81 -211.9679924037412-16.51L-211.9679924037412-16.51Q-211.9679924037412-15.46 -212.1579924037412-14.21L-212.1579924037412-14.21L-212.7379924037412-10.8L-227.3779924037412-10.8L-227.5679924037412-9.7Q-227.6679924037412-9.12 -227.6679924037412-8.64L-227.6679924037412-8.64Q-227.6679924037412-6 -224.5479924037412-6L-224.5479924037412-6Q-223.3879924037412-6 -222.5779924037412-6.72Q-221.7579924037412-7.44 -221.6179924037412-8.4L-221.6179924037412-8.4L-213.6479924037412-8.3Q-215.2279924037412 0.67 -226.1779924037412 0.67ZM-226.8979924037412-13.73L-220.4179924037412-13.73Q-220.2279924037412-14.54 -220.2279924037412-15.24Q-220.2279924037412-15.94 -220.84799240374122-16.66Q-221.4679924037412-17.38 -222.8379924037412-17.38Q-224.2079924037412-17.38 -225.3379924037412-16.46Q-226.4679924037412-15.55 -226.8979924037412-13.73L-226.8979924037412-13.73ZM-186.09200804746857-18.19L-186.09200804746857-18.19Q-186.09200804746857-16.56 -186.65200804746857-15.02Q-187.20200804746858-13.49 -187.73200804746858-12.77L-187.73200804746858-12.77L-188.25200804746856-12.1L-195.50200804746856-12.1Q-194.30200804746858-13.2 -194.30200804746858-14.83L-194.30200804746858-14.83Q-194.30200804746858-15.7 -194.85200804746856-16.25Q-195.41200804746856-16.8 -196.37200804746857-16.8L-196.37200804746857-16.8Q-198.00200804746856-16.8 -199.20200804746858-15.17L-199.20200804746858-15.17L-201.89200804746858 0L-210.05200804746858 0L-205.97200804746856-23.09L-198.38200804746856-23.09L-198.96200804746857-19.87Q-196.22200804746856-23.76 -192.33200804746858-23.76L-192.33200804746858-23.76Q-189.21200804746857-23.76 -187.65200804746857-22.27Q-186.09200804746857-20.78 -186.09200804746857-18.19ZM-173.28001680893283-23.09L-175.54001680893282-10.32Q-175.6800168089328-9.46 -175.6800168089328-8.59L-175.6800168089328-8.59Q-175.6800168089328-6.29 -173.09001680893283-6.29L-173.09001680893283-6.29Q-170.98001680893282-6.29 -169.5800168089328-7.78L-169.5800168089328-7.78L-166.90001680893283-23.09L-158.7400168089328-23.09L-162.9600168089328 0.77Q-164.0200168089328 6.86 -167.78001680893283 10.42Q-171.5500168089328 13.97 -176.40001680893283 13.97Q-181.25001680893283 13.97 -183.38001680893282 12.19Q-185.5200168089328 10.42 -185.5200168089328 7.54L-185.5200168089328 7.54Q-185.5200168089328 3.46 -180.48001680893282 0.29L-180.48001680893282 0.29Q-183.22001680893283-0.38 -183.94001680893282-2.45L-183.94001680893282-2.45Q-184.37001680893283-3.6 -184.37001680893283-5.04Q-184.37001680893283-6.48 -184.13001680893282-7.97L-184.13001680893282-7.97L-181.44001680893282-23.09L-173.28001680893283-23.09ZM-175.3000168089328 7.1L-175.3000168089328 7.1Q-172.1800168089328 7.1 -171.22001680893283 1.44L-171.22001680893283 1.44L-170.7400168089328-1.34Q-177.41001680893282 1.78 -177.41001680893282 4.94L-177.41001680893282 4.94Q-177.41001680893282 5.9 -176.8600168089328 6.5Q-176.3000168089328 7.1 -175.3000168089328 7.1ZM-134.83004071155125-7.39L-134.83004071155125-7.39Q-134.83004071155125-6.14 -133.56004071155124-6.14Q-132.29004071155123-6.14 -131.42004071155125-6.62L-131.42004071155125-6.62L-131.66004071155123-1.2Q-133.97004071155123 0.67 -136.85004071155123 0.67L-136.85004071155123 0.67Q-142.13004071155123 0.67 -142.70004071155125-3.17L-142.70004071155125-3.17Q-145.10004071155123 0.67 -149.76004071155126 0.67L-149.76004071155126 0.67Q-157.63004071155123 0.67 -157.63004071155123-6.1L-157.63004071155123-6.1Q-157.63004071155123-7.25 -157.39004071155125-8.64L-157.39004071155125-8.64L-156.38004071155123-14.26Q-155.62004071155124-18.58 -152.86004071155125-21.14Q-150.10004071155123-23.71 -145.20004071155125-23.71L-145.20004071155125-23.71Q-142.18004071155124-23.71 -140.40004071155124-22.42L-140.40004071155124-22.42L-137.95004071155125-36.43L-129.74004071155125-36.43L-134.78004071155124-7.97Q-134.83004071155125-7.68 -134.83004071155125-7.39ZM-148.42004071155125-13.3L-149.04004071155123-9.7Q-149.14004071155125-9.26 -149.14004071155125-8.5Q-149.14004071155125-7.73 -148.42004071155125-6.98Q-147.70004071155125-6.24 -145.99004071155125-6.24Q-144.29004071155123-6.24 -143.04004071155123-7.58L-143.04004071155123-7.58L-141.60004071155123-15.65Q-142.13004071155123-16.85 -144.10004071155123-16.85L-144.10004071155123-16.85Q-147.79004071155123-16.85 -148.42004071155125-13.3L-148.42004071155125-13.3ZM-105.21399823847489-7.39L-105.21399823847489-7.39Q-105.21399823847489-6.14 -103.94399823847488-6.14Q-102.67399823847488-6.14 -101.80399823847488-6.62L-101.80399823847488-6.62L-102.04399823847488-1.2Q-104.35399823847487 0.67 -107.23399823847488 0.67L-107.23399823847488 0.67Q-112.51399823847488 0.67 -113.08399823847488-3.17L-113.08399823847488-3.17Q-115.48399823847488 0.67 -120.14399823847488 0.67L-120.14399823847488 0.67Q-128.01399823847487 0.67 -128.01399823847487-6.1L-128.01399823847487-6.1Q-128.01399823847487-7.25 -127.77399823847487-8.64L-127.77399823847487-8.64L-126.76399823847488-14.26Q-126.00399823847488-18.58 -123.24399823847487-21.14Q-120.48399823847488-23.71 -116.04399823847488-23.71Q-111.60399823847487-23.71 -110.01399823847488-21.65L-110.01399823847488-21.65L-109.77399823847487-23.09L-102.48399823847488-23.09L-105.16399823847487-7.97Q-105.21399823847489-7.68 -105.21399823847489-7.39ZM-118.80399823847488-13.3L-119.42399823847488-9.7Q-119.52399823847487-9.26 -119.52399823847487-8.5Q-119.52399823847487-7.73 -118.80399823847488-6.98Q-118.08399823847488-6.24 -116.37399823847488-6.24Q-114.67399823847488-6.24 -113.42399823847488-7.58L-113.42399823847488-7.58L-111.98399823847488-15.65Q-112.51399823847488-16.85 -114.48399823847488-16.85L-114.48399823847488-16.85Q-118.17399823847488-16.85 -118.80399823847488-13.3L-118.80399823847488-13.3ZM-87.40800753158906-23.09L-89.66800753158907-10.32Q-89.80800753158907-9.46 -89.80800753158907-8.59L-89.80800753158907-8.59Q-89.80800753158907-6.29 -87.21800753158907-6.29L-87.21800753158907-6.29Q-85.10800753158907-6.29 -83.70800753158906-7.78L-83.70800753158906-7.78L-81.02800753158907-23.09L-72.86800753158907-23.09L-77.08800753158907 0.77Q-78.14800753158907 6.86 -81.90800753158906 10.42Q-85.67800753158906 13.97 -90.52800753158907 13.97Q-95.37800753158906 13.97 -97.50800753158907 12.19Q-99.64800753158907 10.42 -99.64800753158907 7.54L-99.64800753158907 7.54Q-99.64800753158907 3.46 -94.60800753158907 0.29L-94.60800753158907 0.29Q-97.34800753158906-0.38 -98.06800753158907-2.45L-98.06800753158907-2.45Q-98.49800753158907-3.6 -98.49800753158907-5.04Q-98.49800753158907-6.48 -98.25800753158907-7.97L-98.25800753158907-7.97L-95.56800753158907-23.09L-87.40800753158906-23.09ZM-89.42800753158906 7.1L-89.42800753158906 7.1Q-86.30800753158907 7.1 -85.34800753158908 1.44L-85.34800753158908 1.44L-84.86800753158907-1.34Q-91.53800753158907 1.78 -91.53800753158907 4.94L-91.53800753158907 4.94Q-91.53800753158907 5.9 -90.98800753158906 6.5Q-90.42800753158906 7.1 -89.42800753158906 7.1ZM-37.43799726191238-7.39L-37.43799726191238-7.39Q-37.43799726191238-6.14 -36.167997261912376-6.14Q-34.89799726191238-6.14 -34.027997261912375-6.62L-34.027997261912375-6.62L-34.267997261912384-1.2Q-36.57799726191238 0.67 -39.45799726191238 0.67L-39.45799726191238 0.67Q-44.73799726191238 0.67 -45.30799726191238-3.17L-45.30799726191238-3.17Q-47.70799726191238 0.67 -52.36799726191238 0.67L-52.36799726191238 0.67Q-60.237997261912376 0.67 -60.237997261912376-6.1L-60.237997261912376-6.1Q-60.237997261912376-7.25 -59.99799726191238-8.64L-59.99799726191238-8.64L-58.987997261912376-14.26Q-58.22799726191238-18.58 -55.46799726191238-21.14Q-52.70799726191238-23.71 -48.26799726191238-23.71Q-43.82799726191238-23.71 -42.23799726191238-21.65L-42.23799726191238-21.65L-41.997997261912374-23.09L-34.70799726191238-23.09L-37.387997261912375-7.97Q-37.43799726191238-7.68 -37.43799726191238-7.39ZM-51.027997261912375-13.3L-51.64799726191238-9.7Q-51.74799726191238-9.26 -51.74799726191238-8.5Q-51.74799726191238-7.73 -51.027997261912375-6.98Q-50.30799726191238-6.24 -48.59799726191238-6.24Q-46.89799726191238-6.24 -45.64799726191238-7.58L-45.64799726191238-7.58L-44.20799726191238-15.65Q-44.73799726191238-16.85 -46.70799726191238-16.85L-46.70799726191238-16.85Q-50.39799726191238-16.85 -51.027997261912375-13.3L-51.027997261912375-13.3ZM-10.612004481460314-7.39L-10.612004481460314-7.39Q-10.612004481460314-6.14 -9.332004481460315-6.14Q-8.062004481460315-6.14 -7.202004481460314-6.62L-7.202004481460314-6.62L-7.442004481460314-1.2Q-9.742004481460315 0.67 -12.622004481460316 0.67L-12.622004481460316 0.67Q-16.992004481460313 0.67 -18.292004481460314-1.34L-18.292004481460314-1.34Q-19.102004481460316-2.64 -19.102004481460316-4.18Q-19.102004481460316-5.71 -18.912004481460315-6.86L-18.912004481460315-6.86L-13.682004481460314-36.43L-5.522004481460314-36.43L-10.562004481460315-7.97Q-10.612004481460314-7.68 -10.612004481460314-7.39ZM 5.899994783160851-6.14L 5.899994783160851-6.14Q 7.009994783160851-6.14  7.869994783160852-6.62L 7.869994783160852-6.62L 7.629994783160852-1.2Q 5.379994783160852 0.67  2.4999947831608518 0.67L 2.4999947831608518 0.67Q-1.8700052168391483 0.67 -3.1700052168391486-1.34L-3.1700052168391486-1.34Q-4.0300052168391485-2.69 -4.0300052168391485-4.2Q-4.0300052168391485-5.71 -3.8400052168391485-6.86L-3.8400052168391485-6.86L-0.9600052168391482-23.09L 7.199994783160852-23.09L 4.509994783160851-7.97Q 4.459994783160852-7.68  4.459994783160852-7.44L 4.459994783160852-7.44Q 4.459994783160852-6.14  5.899994783160851-6.14ZM-0.0000052168391482254606-30.91L-0.0000052168391482254606-30.91Q-0.0000052168391482254606-33.98  1.3699947831608519-35.4Q 2.739994783160851-36.82  5.619994783160852-36.82L 5.619994783160852-36.82Q 9.649994783160851-36.82  9.649994783160851-33.26L 9.649994783160851-33.26Q 9.649994783160851-30.24  8.279994783160852-28.85Q 6.909994783160851-27.46  3.9799947831608513-27.46L 3.9799947831608513-27.46Q-0.0000052168391482254606-27.46 -0.0000052168391482254606-30.91ZM 21.07401369829596 0.67L 21.07401369829596 0.67Q 15.50401369829596 0.67  13.054013698295961-1.82L 13.054013698295961-1.82Q 11.23401369829596-3.65  11.23401369829596-6.72L 11.23401369829596-6.72Q 11.23401369829596-7.73  11.42401369829596-8.88L 11.42401369829596-8.88L 14.68401369829596-27.46L 23.474013698295963-31.1L 22.084013698295962-23.09L 35.32401369829596-23.09L 34.12401369829596-16.32L 20.88401369829596-16.32L 19.92401369829596-10.9Q 19.724013698295963-9.98  19.724013698295963-9.26L 19.724013698295963-9.26Q 19.724013698295963-6.24  22.604013698295958-6.24L 22.604013698295958-6.24Q 24.14401369829596-6.24  25.17401369829596-7.54Q 26.20401369829596-8.83  26.59401369829596-10.99L 26.59401369829596-10.99L 34.56401369829596-10.99Q 32.54401369829596 0.67  21.07401369829596 0.67ZM 47.42600344438971 0.67L 47.42600344438971 0.67Q 41.85600344438971 0.67  39.40600344438971-1.82L 39.40600344438971-1.82Q 37.58600344438971-3.65  37.58600344438971-6.72L 37.58600344438971-6.72Q 37.58600344438971-7.73  37.77600344438971-8.88L 37.77600344438971-8.88L 41.036003444389706-27.46L 49.82600344438971-31.1L 48.43600344438971-23.09L 61.67600344438971-23.09L 60.476003444389704-16.32L 47.23600344438971-16.32L 46.27600344438971-10.9Q 46.07600344438971-9.98  46.07600344438971-9.26L 46.07600344438971-9.26Q 46.07600344438971-6.24  48.95600344438971-6.24L 48.95600344438971-6.24Q 50.49600344438971-6.24  51.52600344438971-7.54Q 52.55600344438971-8.83  52.94600344438971-10.99L 52.94600344438971-10.99L 60.91600344438971-10.99Q 58.896003444389706 0.67  47.42600344438971 0.67ZM 72.42800406346156-7.39L 72.42800406346156-7.39Q 72.42800406346156-6.14  73.70800406346156-6.14Q 74.97800406346155-6.14  75.83800406346157-6.62L 75.83800406346157-6.62L 75.59800406346156-1.2Q 73.29800406346156 0.67  70.41800406346157 0.67L 70.41800406346157 0.67Q 66.04800406346156 0.67  64.74800406346156-1.34L 64.74800406346156-1.34Q 63.93800406346156-2.64  63.93800406346156-4.18Q 63.93800406346156-5.71  64.12800406346156-6.86L 64.12800406346156-6.86L 69.35800406346156-36.43L 77.51800406346156-36.43L 72.47800406346155-7.97Q 72.42800406346156-7.68  72.42800406346156-7.39ZM 88.50999587750881 0.67L 88.50999587750881 0.67Q 78.52999587750881 0.67  78.52999587750881-6.24L 78.52999587750881-6.24Q 78.52999587750881-7.2  78.71999587750881-8.3L 78.71999587750881-8.3L 79.72999587750881-14.26Q 80.53999587750882-18.86  83.97999587750881-21.34Q 87.40999587750882-23.81  93.06999587750882-23.81L 93.06999587750882-23.81Q 102.71999587750881-23.81  102.71999587750881-16.51L 102.71999587750881-16.51Q 102.71999587750881-15.46  102.52999587750881-14.21L 102.52999587750881-14.21L 101.94999587750881-10.8L 87.30999587750881-10.8L 87.11999587750881-9.7Q 87.01999587750882-9.12  87.01999587750882-8.64L 87.01999587750882-8.64Q 87.01999587750882-6  90.13999587750881-6L 90.13999587750881-6Q 91.29999587750882-6  92.10999587750881-6.72Q 92.92999587750882-7.44  93.06999587750882-8.4L 93.06999587750882-8.4L 101.03999587750882-8.3Q 99.45999587750882 0.67  88.50999587750881 0.67ZM 87.78999587750882-13.73L 94.26999587750882-13.73Q 94.45999587750882-14.54  94.45999587750882-15.24Q 94.45999587750882-15.94  93.83999587750881-16.66Q 93.21999587750881-17.38  91.84999587750882-17.38Q 90.47999587750881-17.38  89.34999587750882-16.46Q 88.21999587750881-15.55  87.78999587750882-13.73L 87.78999587750882-13.73ZM 125.75600699314906-7.39L 125.75600699314906-7.39Q 125.75600699314906-6.14  127.03600699314906-6.14Q 128.30600699314905-6.14  129.16600699314904-6.62L 129.16600699314904-6.62L 128.92600699314906-1.2Q 126.62600699314905 0.67  123.74600699314905 0.67L 123.74600699314905 0.67Q 119.37600699314905 0.67  118.07600699314905-1.34L 118.07600699314905-1.34Q 117.26600699314905-2.64  117.26600699314905-4.18Q 117.26600699314905-5.71  117.45600699314906-6.86L 117.45600699314906-6.86L 122.68600699314905-36.43L 130.84600699314905-36.43L 125.80600699314905-7.97Q 125.75600699314906-7.68  125.75600699314906-7.39ZM 141.8379988071963 0.67L 141.8379988071963 0.67Q 131.8579988071963 0.67  131.8579988071963-6.24L 131.8579988071963-6.24Q 131.8579988071963-7.2  132.0479988071963-8.3L 132.0479988071963-8.3L 133.0579988071963-14.26Q 133.8679988071963-18.86  137.3079988071963-21.34Q 140.7379988071963-23.81  146.3979988071963-23.81L 146.3979988071963-23.81Q 156.0479988071963-23.81  156.0479988071963-16.51L 156.0479988071963-16.51Q 156.0479988071963-15.46  155.8579988071963-14.21L 155.8579988071963-14.21L 155.2779988071963-10.8L 140.6379988071963-10.8L 140.4479988071963-9.7Q 140.3479988071963-9.12  140.3479988071963-8.64L 140.3479988071963-8.64Q 140.3479988071963-6  143.4679988071963-6L 143.4679988071963-6Q 144.6279988071963-6  145.4379988071963-6.72Q 146.2579988071963-7.44  146.3979988071963-8.4L 146.3979988071963-8.4L 154.3679988071963-8.3Q 152.7879988071963 0.67  141.8379988071963 0.67ZM 141.1179988071963-13.73L 147.5979988071963-13.73Q 147.7879988071963-14.54  147.7879988071963-15.24Q 147.7879988071963-15.94  147.16799880719628-16.66Q 146.5479988071963-17.38  145.1779988071963-17.38Q 143.8079988071963-17.38  142.6779988071963-16.46Q 141.5479988071963-15.55  141.1179988071963-13.73L 141.1179988071963-13.73ZM 182.6440100361866-18.1L 182.6440100361866-18.1Q 182.6440100361866-16.51  181.68401003618658-15.17L 181.68401003618658-15.17L 173.80401003618658-15.17Q 174.19401003618657-15.46  174.19401003618657-16.13Q 174.19401003618657-16.8  173.4240100361866-17.21Q 172.65401003618658-17.62  171.4540100361866-17.62L 171.4540100361866-17.62Q 167.8540100361866-17.62  167.8540100361866-15.41L 167.8540100361866-15.41Q 167.8540100361866-14.54  169.2040100361866-14.16Q 170.5440100361866-13.78  172.46401003618658-13.54Q 174.3840100361866-13.3  176.30401003618658-12.84Q 178.2240100361866-12.38  179.56401003618657-11.04Q 180.9140100361866-9.7  180.9140100361866-7.44L 180.9140100361866-7.44Q 180.9140100361866-3.46  177.7240100361866-1.39Q 174.52401003618658 0.67  168.43401003618658 0.67Q 162.33401003618658 0.67  159.8840100361866-1.3L 159.8840100361866-1.3Q 157.96401003618658-2.83  157.96401003618658-5.52L 157.96401003618658-5.52Q 157.96401003618658-6.29  158.11401003618658-7.1L 158.11401003618658-7.1L 166.12401003618658-7.2Q 166.03401003618657-6.53  166.9240100361866-6.02Q 167.80401003618658-5.52  169.53401003618657-5.52Q 171.2640100361866-5.52  172.03401003618657-5.88Q 172.80401003618658-6.24  172.80401003618658-7.25L 172.80401003618658-7.25Q 172.80401003618658-7.92  171.4540100361866-8.18Q 170.11401003618658-8.45  168.1640100361866-8.64Q 166.2240100361866-8.83  164.28401003618657-9.26Q 162.33401003618658-9.7  160.99401003618658-11.09Q 159.6440100361866-12.48  159.6440100361866-14.74L 159.6440100361866-14.74Q 159.6440100361866-19.1  163.03401003618657-21.46Q 166.4140100361866-23.81  172.80401003618658-23.81L 172.80401003618658-23.81Q 182.6440100361866-23.81  182.6440100361866-18.1ZM 208.99599978228034-18.1L 208.99599978228034-18.1Q 208.99599978228034-16.51  208.03599978228033-15.17L 208.03599978228033-15.17L 200.15599978228033-15.17Q 200.54599978228032-15.46  200.54599978228032-16.13Q 200.54599978228032-16.8  199.77599978228034-17.21Q 199.00599978228033-17.62  197.80599978228034-17.62L 197.80599978228034-17.62Q 194.20599978228034-17.62  194.20599978228034-15.41L 194.20599978228034-15.41Q 194.20599978228034-14.54  195.55599978228034-14.16Q 196.89599978228034-13.78  198.81599978228033-13.54Q 200.73599978228035-13.3  202.65599978228033-12.84Q 204.57599978228035-12.38  205.91599978228032-11.04Q 207.26599978228035-9.7  207.26599978228035-7.44L 207.26599978228035-7.44Q 207.26599978228035-3.46  204.07599978228035-1.39Q 200.87599978228033 0.67  194.78599978228033 0.67Q 188.68599978228033 0.67  186.23599978228035-1.3L 186.23599978228035-1.3Q 184.31599978228033-2.83  184.31599978228033-5.52L 184.31599978228033-5.52Q 184.31599978228033-6.29  184.46599978228033-7.1L 184.46599978228033-7.1L 192.47599978228033-7.2Q 192.38599978228032-6.53  193.27599978228034-6.02Q 194.15599978228033-5.52  195.88599978228032-5.52Q 197.61599978228034-5.52  198.38599978228032-5.88Q 199.15599978228033-6.24  199.15599978228033-7.25L 199.15599978228033-7.25Q 199.15599978228033-7.92  197.80599978228034-8.18Q 196.46599978228033-8.45  194.51599978228035-8.64Q 192.57599978228035-8.83  190.63599978228032-9.26Q 188.68599978228033-9.7  187.34599978228033-11.09Q 185.99599978228034-12.48  185.99599978228034-14.74L 185.99599978228034-14.74Q 185.99599978228034-19.1  189.38599978228032-21.46Q 192.76599978228035-23.81  199.15599978228033-23.81L 199.15599978228033-23.81Q 208.99599978228034-23.81  208.99599978228034-18.1ZM 237.21799441857897-23.76L 237.21799441857897-23.76Q 242.39799441857897-23.76  245.03799441857896-21.5L 245.03799441857896-21.5Q 247.10799441857898-19.73  247.10799441857898-16.56L 247.10799441857898-16.56Q 247.10799441857898-15.5  246.86799441857897-14.26L 246.86799441857897-14.26L 245.85799441857898-8.64Q 244.94799441857896-3.55  241.60799441857898-1.44Q 238.26799441857898 0.67  232.70799441857898 0.67Q 227.13799441857898 0.67  224.54799441857898-1.44L 224.54799441857898-1.44Q 222.62799441857896-3.02  222.62799441857896-6.19L 222.62799441857896-6.19Q 222.62799441857896-7.3  222.86799441857897-8.64L 222.86799441857897-8.64L 223.86799441857897-14.26Q 225.54799441857898-23.76  237.21799441857897-23.76ZM 237.88799441857896-9.7L 238.50799441857896-13.3Q 238.60799441857898-13.78  238.60799441857898-14.52Q 238.60799441857898-15.26  237.98799441857898-16.18Q 237.35799441857898-17.09  235.79799441857898-17.09Q 234.23799441857898-17.09  233.18799441857897-16.06Q 232.12799441857896-15.02  231.83799441857897-13.3L 231.83799441857897-13.3L 231.21799441857897-9.7Q 231.11799441857897-9.22  231.11799441857897-8.47Q 231.11799441857897-7.73  231.74799441857897-6.86Q 232.36799441857897-6  233.92799441857898-6Q 235.48799441857898-6  236.54799441857898-7.08Q 237.59799441857896-8.16  237.88799441857896-9.7L 237.88799441857896-9.7ZM 273.2200036712814-18.19L 273.2200036712814-18.19Q 273.2200036712814-16.56  272.6600036712814-15.02Q 272.11000367128145-13.49  271.5800036712814-12.77L 271.5800036712814-12.77L 271.06000367128144-12.1L 263.81000367128144-12.1Q 265.0100036712814-13.2  265.0100036712814-14.83L 265.0100036712814-14.83Q 265.0100036712814-15.7  264.4600036712814-16.25Q 263.9000036712814-16.8  262.94000367128143-16.8L 262.94000367128143-16.8Q 261.31000367128144-16.8  260.11000367128145-15.17L 260.11000367128145-15.17L 257.42000367128145 0L 249.26000367128142 0L 253.34000367128144-23.09L 260.93000367128144-23.09L 260.35000367128146-19.87Q 263.0900036712814-23.76  266.98000367128145-23.76L 266.98000367128145-23.76Q 270.10000367128146-23.76  271.6600036712814-22.27Q 273.2200036712814-20.78  273.2200036712814-18.19ZM 297.1219939583888-7.39L 297.1219939583888-7.39Q 297.1219939583888-6.14  298.3919939583888-6.14Q 299.66199395838885-6.14  300.53199395838885-6.62L 300.53199395838885-6.62L 300.29199395838884-1.2Q 297.98199395838884 0.67  295.10199395838885 0.67L 295.10199395838885 0.67Q 289.8219939583888 0.67  289.2519939583888-3.17L 289.2519939583888-3.17Q 286.85199395838885 0.67  282.1919939583888 0.67L 282.1919939583888 0.67Q 274.3219939583888 0.67  274.3219939583888-6.1L 274.3219939583888-6.1Q 274.3219939583888-7.25  274.5619939583888-8.64L 274.5619939583888-8.64L 275.5719939583888-14.26Q 276.3319939583888-18.58  279.09199395838885-21.14Q 281.85199395838885-23.71  286.7519939583888-23.71L 286.7519939583888-23.71Q 289.77199395838886-23.71  291.55199395838883-22.42L 291.55199395838883-22.42L 294.0019939583888-36.43L 302.21199395838886-36.43L 297.17199395838884-7.97Q 297.1219939583888-7.68  297.1219939583888-7.39ZM 283.53199395838885-13.3L 282.91199395838885-9.7Q 282.8119939583888-9.26  282.8119939583888-8.5Q 282.8119939583888-7.73  283.53199395838885-6.98Q 284.2519939583888-6.24  285.96199395838886-6.24Q 287.66199395838885-6.24  288.91199395838885-7.58L 288.91199395838885-7.58L 290.35199395838885-15.65Q 289.8219939583888-16.85  287.85199395838885-16.85L 287.85199395838885-16.85Q 284.16199395838885-16.85  283.53199395838885-13.3L 283.53199395838885-13.3ZM 314.5400094315984-6.14L 314.5400094315984-6.14Q 315.6500094315984-6.14  316.51000943159835-6.62L 316.51000943159835-6.62L 316.2700094315984-1.2Q 314.0200094315984 0.67  311.14000943159834 0.67L 311.14000943159834 0.67Q 306.7700094315984 0.67  305.4700094315984-1.34L 305.4700094315984-1.34Q 304.61000943159837-2.69  304.61000943159837-4.2Q 304.61000943159837-5.71  304.80000943159837-6.86L 304.80000943159837-6.86L 307.68000943159836-23.09L 315.8400094315984-23.09L 313.1500094315984-7.97Q 313.1000094315984-7.68  313.1000094315984-7.44L 313.1000094315984-7.44Q 313.1000094315984-6.14  314.5400094315984-6.14ZM 308.64000943159834-30.91L 308.64000943159834-30.91Q 308.64000943159834-33.98  310.01000943159835-35.4Q 311.38000943159835-36.82  314.26000943159835-36.82L 314.26000943159835-36.82Q 318.2900094315984-36.82  318.2900094315984-33.26L 318.2900094315984-33.26Q 318.2900094315984-30.24  316.9200094315984-28.85Q 315.55000943159837-27.46  312.62000943159836-27.46L 312.62000943159836-27.46Q 308.64000943159834-27.46  308.64000943159834-30.91ZM 334.8940232439288-14.74L 334.8940232439288-14.74Q 334.8940232439288-16.8  332.9040232439288-16.8Q 330.9140232439288-16.8  329.61402324392884-15.31L 329.61402324392884-15.31L 326.92402324392884 0L 318.7640232439288 0L 322.8440232439288-23.09L 330.43402324392883-23.09L 329.9040232439288-20.26Q 332.73402324392885-23.76  337.05402324392884-23.76Q 341.37402324392883-23.76  342.67402324392884-21.65L 342.67402324392884-21.65Q 343.48402324392885-20.3  343.48402324392885-18.58Q 343.48402324392885-16.85  343.24402324392884-15.36L 343.24402324392884-15.36L 341.9540232439288-7.97Q 341.9040232439288-7.68  341.9040232439288-7.44L 341.9040232439288-7.44Q 341.9040232439288-6.14  343.3440232439288-6.14L 343.3440232439288-6.14Q 344.4440232439288-6.14  345.31402324392883-6.62L 345.31402324392883-6.62L 345.0740232439288-1.2Q 342.81402324392883 0.67  339.93402324392883 0.67L 339.93402324392883 0.67Q 333.4040232439288 0.67  333.4040232439288-4.8L 333.4040232439288-4.8Q 333.4040232439288-5.76  333.60402324392885-6.86L 333.60402324392885-6.86L 334.7540232439288-13.25Q 334.8940232439288-14.11  334.8940232439288-14.74ZM 370.6580110388689-7.39L 370.6580110388689-7.39Q 370.6580110388689-6.14  371.9280110388689-6.14Q 373.1980110388689-6.14  374.0680110388689-6.62L 374.0680110388689-6.62L 373.8280110388689-1.2Q 371.5180110388689 0.67  368.6380110388689 0.67L 368.6380110388689 0.67Q 363.3580110388689 0.67  362.7880110388689-3.17L 362.7880110388689-3.17Q 360.3880110388689 0.67  355.7280110388689 0.67L 355.7280110388689 0.67Q 347.8580110388689 0.67  347.8580110388689-6.1L 347.8580110388689-6.1Q 347.8580110388689-7.25  348.0980110388689-8.64L 348.0980110388689-8.64L 349.1080110388689-14.26Q 349.8680110388689-18.58  352.6280110388689-21.14Q 355.3880110388689-23.71  359.8280110388689-23.71Q 364.2680110388689-23.71  365.8580110388689-21.65L 365.8580110388689-21.65L 366.0980110388689-23.09L 373.3880110388689-23.09L 370.7080110388689-7.97Q 370.6580110388689-7.68  370.6580110388689-7.39ZM 357.0680110388689-13.3L 356.4480110388689-9.7Q 356.3480110388689-9.26  356.3480110388689-8.5Q 356.3480110388689-7.73  357.0680110388689-6.98Q 357.7880110388689-6.24  359.4980110388689-6.24Q 361.1980110388689-6.24  362.4480110388689-7.58L 362.4480110388689-7.58L 363.8880110388689-15.65Q 363.3580110388689-16.85  361.3880110388689-16.85L 361.3880110388689-16.85Q 357.6980110388689-16.85  357.0680110388689-13.3L 357.0680110388689-13.3ZM 400.3240075775314-18.19L 400.3240075775314-18.19Q 400.3240075775314-16.56  399.7640075775314-15.02Q 399.21400757753145-13.49  398.6840075775314-12.77L 398.6840075775314-12.77L 398.16400757753144-12.1L 390.91400757753144-12.1Q 392.1140075775314-13.2  392.1140075775314-14.83L 392.1140075775314-14.83Q 392.1140075775314-15.7  391.5640075775314-16.25Q 391.0040075775314-16.8  390.04400757753143-16.8L 390.04400757753143-16.8Q 388.41400757753144-16.8  387.21400757753145-15.17L 387.21400757753145-15.17L 384.52400757753145 0L 376.3640075775314 0L 380.4440075775314-23.09L 388.03400757753144-23.09L 387.45400757753146-19.87Q 390.1940075775314-23.76  394.08400757753145-23.76L 394.08400757753145-23.76Q 397.20400757753146-23.76  398.7640075775314-22.27Q 400.3240075775314-20.78  400.3240075775314-18.19ZM 413.13599881606723-23.09L 410.87599881606724-10.32Q 410.7359988160672-9.46  410.7359988160672-8.59L 410.7359988160672-8.59Q 410.7359988160672-6.29  413.3259988160672-6.29L 413.3259988160672-6.29Q 415.4359988160672-6.29  416.8359988160672-7.78L 416.8359988160672-7.78L 419.5159988160672-23.09L 427.6759988160672-23.09L 423.4559988160672 0.77Q 422.3959988160672 6.86  418.63599881606723 10.42Q 414.8659988160672 13.97  410.0159988160672 13.97Q 405.1659988160672 13.97  403.0359988160672 12.19Q 400.8959988160672 10.42  400.8959988160672 7.54L 400.8959988160672 7.54Q 400.8959988160672 3.46  405.9359988160672 0.29L 405.9359988160672 0.29Q 403.19599881606723-0.38  402.4759988160672-2.45L 402.4759988160672-2.45Q 402.0459988160672-3.6  402.0459988160672-5.04Q 402.0459988160672-6.48  402.2859988160672-7.97L 402.2859988160672-7.97L 404.9759988160672-23.09L 413.13599881606723-23.09ZM 411.1159988160672 7.1L 411.1159988160672 7.1Q 414.2359988160672 7.1  415.19599881606723 1.44L 415.19599881606723 1.44L 415.6759988160672-1.34Q 409.00599881606723 1.78  409.00599881606723 4.94L 409.00599881606723 4.94Q 409.00599881606723 5.9  409.5559988160672 6.5Q 410.1159988160672 7.1  411.1159988160672 7.1Z"
        font-weight="400"
        font-style="normal"
        path="M-428.01599999999996 0C-214.00799999999998 0 214.00799999999992 0 428.01599999999996 0"
    ></path>
</svg>
